Coordinates
version=1
nRows=13
nColumns=40
inDegrees=yes

Units are S.I. units (second, meters, Newtons, ...)
Angles are in degrees.

endheader
time	pelvis_tilt	pelvis_list	pelvis_rotation	pelvis_tx	pelvis_ty	pelvis_tz	hip_flexion_r	hip_adduction_r	hip_rotation_r	knee_angle_r	knee_angle_r_beta	ankle_angle_r	subtalar_angle_r	mtp_angle_r	hip_flexion_l	hip_adduction_l	hip_rotation_l	knee_angle_l	knee_angle_l_beta	ankle_angle_l	subtalar_angle_l	mtp_angle_l	lumbar_extension	lumbar_bending	lumbar_rotation	arm_flex_r	arm_add_r	arm_rot_r	elbow_flex_r	pro_sup_r	wrist_flex_r	wrist_dev_r	arm_flex_l	arm_add_l	arm_rot_l	elbow_flex_l	pro_sup_l	wrist_flex_l	wrist_dev_l
     31.01500000	     -6.30944444	     -4.76861460	      0.23178240	      1.07956228	      0.92066675	      0.41572649	     14.35415449	     -0.78834745	    -11.86041827	     45.27093103	     45.27093103	     11.73236195	    -14.43594148	     -7.58824606	     27.90121304	     -6.27127862	     -5.34937128	     25.78205535	     25.78205535	      7.74830169	    -13.48551789	      1.70170609	     -9.36211558	      2.11768494	      3.46586812	     22.14738714	    -17.58243979	      6.62514753	    105.81994256	     44.22759835	      0.00000000	      0.00000000	     -0.58134253	     -9.15858767	     -0.68437919	     28.49250583	     45.77441593	      0.00000000	      0.00000000
     31.02714286	     -6.39220270	     -4.68382707	      0.06577592	      1.07841770	      0.92155960	      0.41445191	     16.97750019	     -1.26842750	    -11.78424843	     49.84747053	     49.84747053	     11.64042304	    -16.57226314	     -2.83503037	     27.18667560	     -6.35195420	     -6.33957165	     25.20882109	     25.20882109	      7.64049554	    -12.40215338	     -0.50014081	     -9.35668097	      1.87195924	      3.59516589	     19.49652198	    -17.48807873	      5.33289487	    104.46560677	     44.34485176	      0.00000000	      0.00000000	      1.19759418	     -9.44068504	     -0.58690298	     28.15165211	     45.80147056	      0.00000000	      0.00000000
     31.03928571	     -6.32239653	     -4.35498448	      0.10880469	      1.07727096	      0.92252628	      0.41253227	     19.21195279	     -2.40527012	    -12.38970183	     53.81715590	     53.81715590	     10.65217873	    -17.98840398	     -2.21590992	     26.35567398	     -5.92540673	     -6.78821294	     24.72203610	     24.72203610	      8.02916613	    -11.87362349	     -0.80489122	     -9.58326568	      1.45590846	      2.92782788	     17.24778458	    -17.54869771	      5.75599815	    103.37205763	     44.36075249	      0.00000000	      0.00000000	      2.51928794	     -9.89210949	     -0.62794109	     28.64130309	     45.83081669	      0.00000000	      0.00000000
     31.05142857	     -6.36123251	     -4.03019482	      0.08841977	      1.07603012	      0.92341308	      0.41071324	     21.60781660	     -3.52543020	    -12.82275373	     57.55833051	     57.55833051	     10.50776349	    -18.55595409	      0.17811334	     25.53222741	     -5.55647462	     -7.46714664	     24.02681858	     24.02681858	      8.28717296	    -10.97443999	     -1.40104090	     -9.64717408	      1.03395608	      2.67925497	     14.88694594	    -17.76319942	      5.58161787	    101.33452353	     44.42982538	      0.00000000	      0.00000000	      3.98299197	    -10.20339544	     -0.60518297	     29.21052357	     45.85343376	      0.00000000	      0.00000000
     31.06357143	     -6.24838027	     -3.91293962	      0.19516894	      1.07484750	      0.92440235	      0.40908029	     23.95544187	     -4.17659033	    -12.92832788	     61.16521482	     61.16521482	     12.57652517	    -18.58381951	      9.14107679	     24.64892015	     -5.38685232	     -7.96577025	     23.45339974	     23.45339974	      8.22222650	    -10.23402854	     -3.01289860	     -9.88017416	      0.89359656	      2.32225115	     12.39888540	    -17.26493575	      4.31138353	     99.18988313	     44.56917199	      0.00000000	      0.00000000	      5.64164866	    -10.66755262	     -0.02601751	     29.40215741	     45.80737360	      0.00000000	      0.00000000
     31.07571429	     -6.14970410	     -3.74252329	      0.31109809	      1.07375147	      0.92539206	      0.40722916	     25.93938011	     -5.03853021	    -13.22817462	     63.70835492	     63.70835492	     12.39391238	    -18.84147828	     10.26556357	     23.76982361	     -5.11896113	     -8.40604604	     22.89499940	     22.89499940	      8.53007412	     -9.38215162	     -3.54459384	    -10.09192674	      0.73519941	      1.90646423	     10.10953143	    -17.13203375	      3.77058677	     96.60772065	     44.67469009	      0.00000000	      0.00000000	      7.12331140	    -11.04874551	      0.20311519	     29.95826983	     45.80400769	      0.00000000	      0.00000000
     31.08785714	     -6.05209905	     -3.61518307	      0.44961513	      1.07262700	      0.92641436	      0.40536552	     27.82005461	     -5.75699859	    -13.35932790	     65.64687892	     65.64687892	     12.14544036	    -18.94968160	     10.82710344	     22.90092777	     -4.85690594	     -8.71702128	     22.32868919	     22.32868919	      8.83853564	     -8.64508900	     -3.90163184	    -10.35634513	      0.69111804	      1.54586947	      7.82421803	    -17.17603683	      3.38312174	     94.05570328	     44.76584177	      0.00000000	      0.00000000	      8.62566068	    -11.39877610	      0.31555544	     30.58580522	     45.81567521	      0.00000000	      0.00000000
     31.10000000	     -5.95259467	     -3.57733858	      0.59813833	      1.07161053	      0.92741839	      0.40374149	     29.57963276	     -6.24076920	    -13.32992190	     66.98764423	     66.98764423	     11.89271542	    -18.94786063	     11.18950388	     22.06837078	     -4.71630866	     -9.01041761	     21.82016156	     21.82016156	      9.11412660	     -7.91866950	     -4.28657574	    -10.53466785	      0.71518433	      1.25396967	      5.66704692	    -17.04948698	      2.64402511	     90.92645336	     44.88575073	      0.00000000	      0.00000000	     10.16587712	    -11.69175552	      0.47940242	     31.18773780	     45.82161929	      0.00000000	      0.00000000
     31.11214286	     -5.88242344	     -3.61873490	      0.73591816	      1.07056110	      0.92839875	      0.40225168	     31.24162141	     -6.50599448	    -13.15760631	     67.70061233	     67.70061233	     11.54520462	    -18.87531185	     11.15245835	     21.30818664	     -4.65304180	     -9.18339278	     21.37528967	     21.37528967	      9.36964659	     -7.29319436	     -4.58854815	    -10.73825720	      0.86015090	      1.00068310	      3.50788478	    -16.93307221	      1.96837696	     87.71914219	     45.00422537	      0.00000000	      0.00000000	     11.68256427	    -11.97584932	      0.62563256	     31.79793738	     45.82957764	      0.00000000	      0.00000000
     31.12428571	     -5.77129585	     -3.76230990	      0.86692768	      1.06961534	      0.92937093	      0.40095411	     32.69643245	     -6.55561572	    -12.89071172	     67.82044793	     67.82044793	     11.12480498	    -18.70602363	     10.76261791	     20.53442723	     -4.71314641	     -9.29731891	     20.98122867	     20.98122867	      9.68019446	     -6.72134020	     -4.88335788	    -10.94153157	      1.11282867	      0.96181565	      1.52369217	    -16.76448850	      1.03682578	     83.84631211	     45.15240904	      0.00000000	      0.00000000	     13.24151767	    -12.14438952	      0.83254243	     32.45808565	     45.83040762	      0.00000000	      0.00000000
     31.13642857	     -5.61331563	     -3.96622034	      0.98982277	      1.06882109	      0.93031508	      0.39981688	     33.91148927	     -6.45689283	    -12.55936372	     67.34905221	     67.34905221	     10.60724814	    -18.48702203	      9.85473483	     19.77139293	     -4.84680519	     -9.30910960	     20.72087195	     20.72087195	     10.05050698	     -6.27883663	     -5.18344744	    -11.11934359	      1.47799649	      0.82226021	     -0.05172490	    -16.22322799	     -0.34302966	     79.29748457	     45.33756575	      0.00000000	      0.00000000	     14.69518071	    -12.35621126	      1.20350791	     32.98675947	     45.81092348	      0.00000000	      0.00000000
     31.14857143	     -5.54383908	     -4.26023758	      1.10493484	      1.06790432	      0.93112108	      0.39888559	     35.04364108	     -6.22720358	    -12.27173427	     66.35121697	     66.35121697	     10.26898203	    -18.16046162	      9.36409168	     19.15159569	     -5.07022628	     -9.22151659	     20.48729577	     20.48729577	     10.29632422	     -6.07267913	     -5.27092554	    -11.39127763	      1.94480477	      0.71644298	     -1.99008050	    -16.29119221	     -0.74689507	     76.29775686	     45.43968348	      0.00000000	      0.00000000	     16.08414987	    -12.57300913	      1.30429343	     33.69503550	     45.82360349	      0.00000000	      0.00000000
     31.16071429	     -5.37663180	     -4.54642498	      1.14405416	      1.06710215	      0.93194623	      0.39818598	     35.90044957	     -5.88918634	    -11.80758981	     64.86095285	     64.86095285	      9.77409285	    -17.73141860	      8.60033248	     18.46826131	     -5.32865221	     -9.11554680	     20.37778156	     20.37778156	     10.62938857	     -5.91704074	     -5.38835750	    -11.60659986	      2.37975438	      1.17748831	     -3.57097912	    -16.29877868	     -1.56080358	     71.76770980	     45.60722506	      0.00000000	      0.00000000	     17.64544496	    -12.52400695	      1.51837986	     34.63136440	     45.82651635	      0.00000000	      0.00000000
